<svg width="264" height="51" viewBox="0 0 264 51" fill="none" xmlns="http://www.w3.org/2000/svg">
<g clip-path="url(#clip0_1889_198)">
<path d="M0 50.8557V41.1075C2.80993 41.1075 5.46603 41.1075 8.13239 41.1075C24.0177 41.1075 39.903 41.1075 55.7884 41.1075C57.1523 41.1075 58.5265 41.1797 59.8802 41.0353C63.1516 40.6846 66.2282 39.6943 66.1359 35.6815C66.0436 31.6997 63.0388 30.6888 59.6751 30.6785C43.9641 30.6372 28.2429 30.6372 12.5319 30.6166C8.47081 30.6166 4.42 30.6166 0.0307656 30.6166V20.6208C5.55833 20.6208 10.809 20.6208 16.0597 20.6208C30.2426 20.6208 44.4153 20.6105 58.5983 20.6208C62.2594 20.6208 65.9718 20.1463 66.0949 15.6075C66.2282 10.6767 62.2799 10.1712 58.4855 10.1712C39.1954 10.1506 19.8951 10.1712 0.153828 10.1712V0.165145C8.76821 0.165145 17.1057 0.165145 25.4432 0.165145C36.7137 0.165145 48.0252 -0.319685 59.2546 0.392087C63.8592 0.680922 68.9561 2.65119 72.6787 5.42607C78.8729 10.0371 78.6985 17.5262 73.4376 25.1391C83.621 39.5395 71.8993 51.3611 58.6393 50.9898C40.8875 50.4946 23.1153 50.866 5.34297 50.866C3.67137 50.866 1.98951 50.866 0 50.866L0 50.8557Z" fill="white"/>
<path d="M186.655 10.326V0.0207801C193.916 0.0207801 201.023 -0.020482 208.119 0.0207801C217.175 0.0826733 226.251 -0.226793 235.255 0.464348C240.577 0.866654 246.136 2.0942 250.935 4.36362C259.467 8.38668 263.898 15.7417 263.99 25.4073C264.082 35.2793 259.683 42.6858 251.007 47.0287C247.13 48.968 242.628 50.5463 238.372 50.6494C221.318 51.0517 204.243 50.8145 186.696 50.8145V41.1694C202.305 41.1694 217.636 41.2107 232.968 41.1282C235.665 41.1075 238.454 40.8497 241.049 40.1482C248.771 38.0438 253.16 32.4941 253.027 25.4589C252.894 18.3721 248.433 13.1318 240.567 11.1925C238.116 10.5942 235.511 10.3673 232.978 10.3466C217.647 10.2744 202.305 10.3054 186.655 10.3054V10.326Z" fill="white"/>
<path d="M163.284 0.227051H174.257C174.257 8.11843 174.636 15.8241 174.134 23.4576C173.764 29.0383 170.401 31.6688 164.319 31.8751C156.823 32.133 149.306 31.937 141.122 31.937V50.9588H127.985V22.2095C135.348 22.2095 142.64 22.2095 149.921 22.2095C152.146 22.2095 154.362 22.1785 156.587 22.1682C161.171 22.1372 163.509 20.0638 163.325 15.2052C163.14 10.4085 163.284 5.61176 163.284 0.227051Z" fill="white"/>
<path d="M122.314 31.8852C113.935 31.8852 105.947 32.0708 97.9681 31.813C93.3328 31.6582 89.9896 28.7905 89.7127 24.1691C89.2512 16.3706 89.5896 8.52048 89.5896 0.433105H100.583C100.583 5.36393 100.522 10.0988 100.604 14.8336C100.706 20.9507 102.05 22.2814 108.254 22.3949C112.828 22.4774 117.402 22.4155 122.324 22.4155V31.8852H122.314Z" fill="white"/>
</g>
<defs>
<clipPath id="clip0_1889_198">
<rect width="264" height="51" fill="white"/>
</clipPath>
</defs>
</svg>
